# xmcd
#
# Track frame offsets:
#	150
#	22713
#	36163
#	52193
#	90610
#	121905
#	142703
#	165348
#
# Disc length: 2609 seconds
#
# Revision: 1
# Processed by: cddbd v1.5.1PL0 Copyright (c) Steve Scherf et al.
# Submitted via: CDex 1.50Beta5
#
DISCID=560a2f08
DTITLE=カルメン。マキ - Blues Creation
DYEAR=1971
DGENRE=Rock
TTITLE0=Understand
TTITLE1=And You
TTITLE2=Lord, I Can't Be Going No More
TTITLE3=Empty Heart
TTITLE4=Motherless Child
TTITLE5=I Can't Live For Today
TTITLE6=Mean Old Boogie
TTITLE7=S. James Infirmary
EXTD=
EXTT0=
EXTT1=
EXTT2=
EXTT3=
EXTT4=
EXTT5=
EXTT6=
EXTT7=
PLAYORDER=
